<svg xmlns="http://www.w3.org/2000/svg" width="1200" height="630" viewBox="0 0 1200 630">
  <defs>
    <linearGradient id="sky" x1="0" x2="0" y1="0" y2="1">
      <stop stop-color="#dff6ff"/>
      <stop offset=".58" stop-color="#f3fcff"/>
      <stop offset="1" stop-color="#fff8ed"/>
    </linearGradient>
    <pattern id="hanji" width="34" height="34" patternUnits="userSpaceOnUse">
      <path d="M0 0H34M0 17H34M17 0V34" stroke="#2f8eb8" stroke-opacity=".08" stroke-width="1"/>
    </pattern>
    <filter id="shadow" x="-20%" y="-20%" width="140%" height="140%">
      <feDropShadow dx="0" dy="22" stdDeviation="24" flood-color="#357093" flood-opacity=".18"/>
    </filter>
  </defs>
  <rect width="1200" height="630" fill="url(#sky)"/>
  <rect width="1200" height="630" fill="url(#hanji)" opacity=".72"/>
  <path d="M0 510L120 474L240 510L360 468L480 506L600 464L720 506L840 470L960 508L1080 474L1200 506V630H0Z" fill="#73c7e7" opacity=".2"/>
  <rect x="166" y="96" width="868" height="438" rx="18" fill="#ffffff" opacity=".82" filter="url(#shadow)"/>
  <rect x="166" y="96" width="868" height="24" fill="#73c7e7"/>
  <path d="M166 120H1034V132L600 162L166 132Z" fill="#2f8eb8" opacity=".55"/>
  <rect x="214" y="182" width="150" height="150" rx="75" fill="#eefbff" stroke="#73c7e7" stroke-width="8"/>
  <path d="M214 356H986" stroke="#2f8eb8" stroke-opacity=".14" stroke-width="2"/>
  <text x="410" y="244" fill="#183348" font-family="Apple SD Gothic Neo, Noto Sans KR, Arial, sans-serif" font-size="74" font-weight="900">서아 / Seiga</text>
  <text x="412" y="312" fill="#2f8eb8" font-family="Apple SD Gothic Neo, Noto Sans KR, Arial, sans-serif" font-size="34" font-weight="800">Twitch · YouTube · TikTok · X</text>
  <rect x="410" y="382" width="406" height="58" rx="12" fill="#eefbff" stroke="#73c7e7" stroke-opacity=".38"/>
  <text x="438" y="421" fill="#183348" font-family="Apple SD Gothic Neo, Noto Sans KR, Arial, sans-serif" font-size="28" font-weight="800">파스텔 하늘 아래 링크 모음</text>
  <rect x="844" y="382" width="104" height="58" rx="12" fill="#ffe7a3" opacity=".8"/>
  <text x="870" y="421" fill="#183348" font-family="Apple SD Gothic Neo, Noto Sans KR, Arial, sans-serif" font-size="25" font-weight="900">방송</text>
</svg>
